<svg width="512" height="512" viewBox="0 0 512 512" xmlns="http://www.w3.org/2000/svg">
  <rect width="512" height="512" rx="112" fill="#10B981"/>
  <path d="M384 128h-32v-32c0-17.67-14.33-32-32-32s-32 14.33-32 32v32h-64v-32c0-17.67-14.33-32-32-32s-32 14.33-32 32v32h-32c-35.35 0-64 28.65-64 64v224c0 35.35 28.65 64 64 64h256c35.35 0 64-28.65 64-64V192c0-35.35-28.65-64-64-64zm0 288c0 17.65-14.35 32-32 32H160c-17.65 0-32-14.35-32-32V256h256v160zm0-224H128v-32c0-17.65 14.35-32 32-32h32v32c0 17.67 14.33 32 32 32s32-14.33 32-32v-32h64v32c0 17.67 14.33 32 32 32s32-14.33 32-32v-32h32c17.65 0 32 14.35 32 32v32z" fill="#ffffff"/>
  <rect x="176" y="304" width="48" height="48" rx="8" fill="#ffffff"/>
  <rect x="256" y="304" width="48" height="48" rx="8" fill="#ffffff"/>
  <rect x="176" y="384" width="48" height="48" rx="8" fill="#ffffff"/>
  <rect x="336" y="304" width="48" height="48" rx="8" fill="#ffffff"/>
</svg>
